<svg width="14" height="12" viewBox="0 0 14 12" fill="none" xmlns="http://www.w3.org/2000/svg">
<path d="M0.000162623 5.70367C0.00747347 5.88902 0.0837207 6.10327 0.210808 6.23839L4.87744 11.1643C5.14992 11.4871 5.67411 11.4807 5.98045 11.1897C6.28679 10.8988 6.31194 10.3836 6.00353 10.0948L2.58458 6.48145L13.2222 6.48145C13.6518 6.48145 14 6.13321 14 5.70368C14 5.27411 13.6518 4.9259 13.2222 4.9259L2.58458 4.9259L6.00353 1.31251C6.31189 1.02369 6.28664 0.506324 5.98019 0.215411C5.67386 -0.0755012 5.14222 -0.0767744 4.87729 0.243072L0.210648 5.16896C0.0687004 5.31979 0.00223593 5.49572 0.000162623 5.70367Z" fill="white"/>
</svg>
