<svg width="14" height="13" viewBox="0 0 14 13" fill="none" xmlns="http://www.w3.org/2000/svg">
<path d="M0.000162623 6.33356C0.00747347 6.5189 0.0837207 6.73315 0.210808 6.86827L4.87744 11.7942C5.14992 12.117 5.67411 12.1105 5.98045 11.8196C6.28679 11.5287 6.31194 11.0135 6.00353 10.7247L2.58458 7.11133L13.2222 7.11133C13.6518 7.11133 14 6.7631 14 6.33356C14 5.904 13.6518 5.55579 13.2222 5.55579L2.58458 5.55579L6.00353 1.94239C6.31189 1.65358 6.28664 1.13621 5.98019 0.845294C5.67386 0.554382 5.14222 0.553108 4.87729 0.872955L0.210648 5.79884C0.0687004 5.94968 0.00223593 6.12561 0.000162623 6.33356Z" fill="#0F5E8B"/>
</svg>
