<svg xmlns="http://www.w3.org/2000/svg" viewBox="0 0 201.46 28.35"><defs><style>.cls-1{fill:#1d1d1b;}</style></defs><title>Element 1</title><g id="Ebene_2" data-name="Ebene 2"><g id="Ebene_1-2" data-name="Ebene 1"><path class="cls-1" d="M186.84,12.62l2.33-5.54H190l2.23,5.54h-.83l-.6-1.44h-2.57l-.6,1.44Zm1.65-2.1h2.06l-1-2.68Z"/><path class="cls-1" d="M193.83,12.62h-.73V8.77h.73v.74h0a1.07,1.07,0,0,1,1.13-.8h.25v.69a.83.83,0,0,0-.31,0c-.92,0-1.08.53-1.08,1.34Z"/><path class="cls-1" d="M196.17,8.77V8l.73-.23v1l.89,0v.54h-.89v2.49c0,.27.22.4.48.4a1.64,1.64,0,0,0,.38,0v.56c-.17,0-.33,0-.5,0a2.77,2.77,0,0,1-.49,0,.68.68,0,0,1-.43-.25c-.13-.18-.17-.2-.17-.71V9.28h-.66V8.75Z"/><path class="cls-1" d="M174.75,10.24c0-.67,0-1.06-.81-1.06a.66.66,0,0,0-.72.62h-.77c0-.85.7-1.15,1.46-1.15s1.57.24,1.57,1.31V11.8c0,.17,0,.49,0,.82H175c-.07,0-.2,0-.21-.06s0-.34,0-.52h0a1.22,1.22,0,0,1-1.19.69c-.67,0-1.35-.34-1.35-1.09,0-1.09,1-1.4,1.87-1.4Zm-.73.51c-.44,0-1,.18-1,.74a.68.68,0,0,0,.76.71c.86,0,1-.74,1-1.45Z"/><path class="cls-1" d="M177.41,9.34h0a1.33,1.33,0,0,1,1.17-.69A1.32,1.32,0,0,1,180,10v2.66h-.72V10.19c0-.63-.27-1-.89-1a1,1,0,0,0-.7.29c-.11.1-.31.27-.31,1v2.1h-.73V8.77h.72Z"/><path class="cls-1" d="M184,7.08h.73v4.85c0,.23,0,.46,0,.69H184l0-.58v0h0a1.37,1.37,0,0,1-1.33.73c-1.14,0-1.6-1.05-1.6-2s.53-2,1.73-2a1.27,1.27,0,0,1,1.2.64h0Zm-1.08,5.15c.88,0,1.09-.82,1.09-1.54s-.26-1.53-1.09-1.53-1.09.8-1.09,1.53S182.06,12.23,182.88,12.23Z"/><path class="cls-1" d="M199.86,8.65c.73,0,1.55.31,1.5,1.18h-.77c0-.49-.34-.65-.77-.65s-.7.19-.7.62.66.46.93.54c.66.21,1.41.29,1.41,1.16s-.92,1.23-1.71,1.23-1.48-.37-1.48-1.26H199a.72.72,0,0,0,.78.73c.43,0,.87-.17.87-.66,0-.86-2.34-.22-2.34-1.72C198.35,9,199.17,8.65,199.86,8.65Z"/><path class="cls-1" d="M66.06,10.42a2.23,2.23,0,1,1-4.46,0V7.08h.77v3.53a1.47,1.47,0,0,0,2.93,0V7.08h.76Z"/><path class="cls-1" d="M68.1,9.34h0a1.33,1.33,0,0,1,1.17-.69A1.32,1.32,0,0,1,70.74,10v2.66H70V10.19c0-.63-.27-1-.88-1a1,1,0,0,0-.7.29c-.11.1-.31.27-.31,1v2.1h-.73V8.77h.71Z"/><path class="cls-1" d="M72.1,7.08H73v.79H72.1Zm.07,5.54V8.77h.73v3.85Z"/><path class="cls-1" d="M75.4,12.62,73.79,8.77h.81l1.22,3.05L77,8.77h.8l-1.69,3.85Z"/><path class="cls-1" d="M79.05,10.83c0,.68.22,1.37,1,1.37a.8.8,0,0,0,.93-.78h.77A1.53,1.53,0,0,1,80,12.73c-1.23,0-1.72-.87-1.72-2s.56-2.07,1.78-2.07a1.62,1.62,0,0,1,1.7,1.82v.36Zm2-.51c0-.64-.28-1.14-1-1.14a1,1,0,0,0-1,1.14Z"/><path class="cls-1" d="M83.56,12.62h-.73V8.77h.73v.74h0a1.05,1.05,0,0,1,1.12-.8H85v.69a.88.88,0,0,0-.32,0c-.92,0-1.08.53-1.08,1.34Z"/><path class="cls-1" d="M87,8.65c.73,0,1.55.31,1.49,1.18h-.76c0-.49-.35-.65-.77-.65s-.7.19-.7.62.65.46.93.54c.65.21,1.4.29,1.4,1.16s-.92,1.23-1.71,1.23-1.48-.37-1.47-1.26h.77a.71.71,0,0,0,.78.73c.43,0,.87-.16.87-.66,0-.86-2.34-.22-2.34-1.72C85.47,9,86.28,8.65,87,8.65Z"/><path class="cls-1" d="M89.49,7.08h.87v.79h-.87Zm.07,5.54V8.77h.73v3.85Z"/><path class="cls-1" d="M91.79,8.77V8l.73-.23v1l.89,0v.54h-.89v2.49c0,.27.22.4.48.4a1.64,1.64,0,0,0,.38,0v.56c-.17,0-.33,0-.5,0a2.77,2.77,0,0,1-.49,0,.68.68,0,0,1-.43-.25c-.13-.18-.17-.2-.17-.71V9.28h-.66V8.75Z"/><path class="cls-1" d="M95.58,14.09h-.74l.58-1.49-1.6-3.83h.81l1.2,3,1.23-3h.78Z"/><path class="cls-1" d="M103.35,10.69a1.92,1.92,0,1,1-3.83,0,1.92,1.92,0,1,1,3.83,0Zm-1.91,1.51c.86,0,1.15-.69,1.15-1.51s-.29-1.51-1.15-1.51-1.15.69-1.15,1.51S100.57,12.2,101.44,12.2Z"/><path class="cls-1" d="M104.73,12.62V9.27H104v-.5h.75V8A1.06,1.06,0,0,1,105.93,7a3,3,0,0,1,.52.07v.61l-.37,0c-.41,0-.65.1-.62.53v.61h.88v.5h-.88v3.35Z"/><path class="cls-1" d="M108,12.62l2.33-5.54h.82l2.24,5.54h-.83l-.6-1.44h-2.57l-.6,1.44Zm1.65-2.1h2.06l-1-2.68Z"/><path class="cls-1" d="M114.23,9.46c0-.23,0-.46,0-.69h.74l0,.61h0a1.24,1.24,0,0,1,1.31-.73c1.08,0,1.62,1,1.62,2a1.81,1.81,0,0,1-1.85,2,1.31,1.31,0,0,1-1.07-.55h0v1.91h-.73Zm1.82-.28c-.83,0-1.09.82-1.09,1.51s.21,1.51,1,1.51,1.16-.79,1.16-1.51S116.92,9.18,116.05,9.18Z"/><path class="cls-1" d="M119,9.46c0-.23,0-.46,0-.69h.74l0,.61h0a1.24,1.24,0,0,1,1.31-.73c1.08,0,1.62,1,1.62,2a1.81,1.81,0,0,1-1.85,2,1.31,1.31,0,0,1-1.07-.55h0v1.91H119Zm1.81-.28c-.83,0-1.09.82-1.09,1.51s.21,1.51,1,1.51,1.16-.79,1.16-1.51S121.69,9.18,120.81,9.18Z"/><path class="cls-1" d="M123.8,12.62V7.08h.73v5.54Z"/><path class="cls-1" d="M125.94,7.08h.87v.79h-.87Zm.07,5.54V8.77h.73v3.85Z"/><path class="cls-1" d="M128.56,10.83c-.06.68.22,1.37,1,1.37a.81.81,0,0,0,.94-.78h.76a1.53,1.53,0,0,1-1.71,1.31c-1.23,0-1.72-.87-1.72-2s.57-2.07,1.79-2.07a1.62,1.62,0,0,1,1.69,1.82v.36Zm1.94-.51c0-.64-.27-1.14-1-1.14a1,1,0,0,0-1,1.14Z"/><path class="cls-1" d="M135,7.08h.73v4.86c0,.22,0,.45,0,.68H135l0-.58v0h0a1.36,1.36,0,0,1-1.33.73c-1.14,0-1.59-1.05-1.59-2s.53-2,1.72-2a1.27,1.27,0,0,1,1.2.64h0Zm-1.08,5.15c.88,0,1.09-.82,1.09-1.54s-.26-1.53-1.09-1.53-1.09.8-1.09,1.53S133.07,12.23,133.89,12.23Z"/><path class="cls-1" d="M139.4,11c0,.78.47,1.07,1.21,1.07s1.4-.18,1.4-1c0-.54-.44-.76-.9-.86-.92-.2-2.44-.4-2.44-1.64S139.77,7,140.81,7s1.87.42,1.87,1.49h-.81c0-.62-.55-.83-1.1-.83s-1.29.2-1.29.85.44.67.93.82c1,.33,2.41.33,2.41,1.73s-1.13,1.7-2.25,1.7-2-.49-2-1.73Z"/><path class="cls-1" d="M146,10c0-.48-.27-.82-.79-.82-.7,0-1,.61-1,1.51s.27,1.51,1,1.51c.48,0,.78-.31.82-.86h.73a1.47,1.47,0,0,1-1.56,1.39c-1.23,0-1.73-.87-1.73-2s.57-2.07,1.79-2.07A1.39,1.39,0,0,1,146.76,10Z"/><path class="cls-1" d="M147.6,7.08h.86v.79h-.86Zm.07,5.54V8.77h.73v3.85Z"/><path class="cls-1" d="M150.33,10.83c-.06.68.22,1.37,1,1.37a.81.81,0,0,0,.94-.78H153a1.53,1.53,0,0,1-1.71,1.31c-1.24,0-1.73-.87-1.73-2s.57-2.07,1.79-2.07A1.62,1.62,0,0,1,153,10.47v.36Zm1.95-.51c0-.64-.28-1.14-1-1.14a1,1,0,0,0-1,1.14Z"/><path class="cls-1" d="M154.91,9.34h0a1.41,1.41,0,0,1,2.62.62v2.66h-.73V10.19c0-.63-.27-1-.88-1a1,1,0,0,0-.7.29c-.11.1-.31.27-.31,1v2.1h-.73V8.77h.71Z"/><path class="cls-1" d="M161,10c0-.48-.27-.82-.79-.82-.7,0-1,.61-1,1.51s.27,1.51,1,1.51c.48,0,.78-.31.82-.86h.73a1.47,1.47,0,0,1-1.56,1.39c-1.23,0-1.73-.87-1.73-2s.57-2.07,1.79-2.07A1.39,1.39,0,0,1,161.71,10Z"/><path class="cls-1" d="M163.26,10.83c0,.68.22,1.37,1,1.37a.8.8,0,0,0,.93-.78h.77a1.53,1.53,0,0,1-1.71,1.31c-1.23,0-1.72-.87-1.72-2s.56-2.07,1.78-2.07a1.62,1.62,0,0,1,1.7,1.82v.36Zm2-.51c0-.64-.28-1.14-1-1.14a1,1,0,0,0-1,1.14Z"/><path class="cls-1" d="M168.36,8.65c.73,0,1.55.31,1.49,1.18h-.76c0-.49-.35-.65-.77-.65s-.7.19-.7.62.66.46.93.54c.65.21,1.4.29,1.4,1.16s-.92,1.23-1.7,1.23-1.49-.37-1.48-1.26h.77a.72.72,0,0,0,.78.73c.43,0,.87-.16.87-.66,0-.86-2.34-.22-2.34-1.72C166.85,9,167.66,8.65,168.36,8.65Z"/><path class="cls-1" d="M66.06,15.73v5.53h-1l-2.8-4.7h0v4.7h-.68V15.73h1l2.7,4.57h0V15.73Z"/><path class="cls-1" d="M70.93,19.34a1.92,1.92,0,1,1-3.84,0,1.92,1.92,0,1,1,3.84,0ZM69,20.85c.86,0,1.15-.69,1.15-1.51s-.29-1.51-1.15-1.51-1.15.69-1.15,1.51S68.14,20.85,69,20.85Z"/><path class="cls-1" d="M72.56,21.26h-.73V17.41h.73v.75h0a1.07,1.07,0,0,1,1.13-.8H74v.69a.83.83,0,0,0-.31,0c-.92,0-1.08.52-1.08,1.33Z"/><path class="cls-1" d="M74.83,17.41v-.82l.73-.23v1.05l.89,0v.54h-.89v2.48c0,.28.21.41.47.41a1.74,1.74,0,0,0,.39-.05v.56c-.17,0-.33.05-.5.05a2.63,2.63,0,0,1-.49,0,.67.67,0,0,1-.43-.26c-.13-.18-.17-.19-.17-.71V17.93h-.66v-.54Z"/><path class="cls-1" d="M77.42,21.26V15.73h.73v2.2h0a1.38,1.38,0,0,1,1.25-.63,1.21,1.21,0,0,1,1.32,1.36v2.6H80V19c0-.67-.17-1.11-.86-1.12a1,1,0,0,0-.87.53,1.85,1.85,0,0,0-.12.89v2Z"/><path class="cls-1" d="M87.52,17.41l-1.35,3.85h-.83l-.9-3.17h0l-1,3.17h-.85l-1.27-3.85h.79l.92,3.1h0l1-3.1h.94l.87,3h0l1-3Z"/><path class="cls-1" d="M88.69,19.48c-.06.67.22,1.37,1,1.37a.81.81,0,0,0,.94-.78h.77a1.53,1.53,0,0,1-1.71,1.31c-1.24,0-1.73-.88-1.73-2s.57-2.07,1.79-2.07a1.61,1.61,0,0,1,1.69,1.81v.37Zm2-.51c0-.64-.28-1.14-1-1.14a1,1,0,0,0-1,1.14Z"/><path class="cls-1" d="M93.79,17.3c.73,0,1.55.3,1.49,1.18h-.76c0-.49-.35-.65-.77-.65S93,18,93,18.44s.66.46.94.54c.65.22,1.4.3,1.4,1.16s-.92,1.24-1.71,1.24S92.19,21,92.2,20.12H93a.71.71,0,0,0,.78.73c.43,0,.87-.17.87-.67,0-.86-2.34-.21-2.34-1.72C92.28,17.66,93.09,17.3,93.79,17.3Z"/><path class="cls-1" d="M96.59,17.41v-.82l.72-.23v1.05l.89,0v.54h-.89v2.48c0,.28.22.41.48.41a1.65,1.65,0,0,0,.38-.05v.56c-.17,0-.33.05-.5.05a2.77,2.77,0,0,1-.49,0,.72.72,0,0,1-.43-.26c-.13-.18-.16-.19-.16-.71V17.93h-.66v-.54Z"/><path class="cls-1" d="M99.61,19.48c-.06.67.22,1.37,1,1.37a.82.82,0,0,0,.94-.78h.76a1.53,1.53,0,0,1-1.71,1.31c-1.23,0-1.72-.88-1.72-2s.57-2.07,1.79-2.07a1.61,1.61,0,0,1,1.69,1.81v.37Zm1.94-.51c0-.64-.27-1.14-1-1.14a1,1,0,0,0-1,1.14Z"/><path class="cls-1" d="M103.92,21.26h-.73V17.41h.73v.75h0a1.06,1.06,0,0,1,1.12-.8h.26v.69a.88.88,0,0,0-.32,0c-.92,0-1.08.52-1.08,1.33Z"/><path class="cls-1" d="M106.79,18h0a1.41,1.41,0,0,1,2.62.62v2.66h-.73V18.84c0-.64-.27-1-.88-1a1,1,0,0,0-.71.28c-.11.11-.3.28-.3,1v2.09h-.73V17.41h.71Z"/><path class="cls-1" d="M113.25,19.64c0,.79.46,1.08,1.21,1.08s1.39-.19,1.39-1c0-.54-.44-.76-.9-.85-.92-.2-2.43-.41-2.43-1.65s1.09-1.65,2.13-1.65,1.87.42,1.87,1.5h-.81c0-.62-.55-.84-1.1-.84s-1.29.2-1.29.86.45.67.93.82c1,.33,2.41.33,2.41,1.72s-1.13,1.71-2.25,1.71-2-.49-2-1.74Z"/><path class="cls-1" d="M123.35,17.41,122,21.26h-.82l-.9-3.17h0l-1,3.17h-.85l-1.27-3.85h.79l.93,3.1h0l1-3.1h1l.86,3h0l1-3Z"/><path class="cls-1" d="M124,15.73h.87v.79H124Zm.07,5.53V17.41h.73v3.85Z"/><path class="cls-1" d="M126.29,17.41v-.82l.73-.23v1.05l.89,0v.54H127v2.48c0,.28.22.41.48.41a1.73,1.73,0,0,0,.38-.05v.56c-.17,0-.33.05-.5.05a2.77,2.77,0,0,1-.49,0,.7.7,0,0,1-.43-.26c-.13-.18-.17-.19-.17-.71V17.93h-.66v-.54Z"/><path class="cls-1" d="M131.3,21.26h-2.8v-.51l1.94-2.83h-1.91v-.51h2.69v.51l-1.93,2.83h2Z"/><path class="cls-1" d="M132.64,19.48c0,.67.22,1.37,1,1.37a.81.81,0,0,0,.93-.78h.77a1.53,1.53,0,0,1-1.71,1.31c-1.23,0-1.73-.88-1.73-2s.57-2.07,1.79-2.07a1.61,1.61,0,0,1,1.69,1.81v.37Zm2-.51c0-.64-.28-1.14-1-1.14a1,1,0,0,0-1,1.14Z"/><path class="cls-1" d="M137.15,21.26h-.73V17.41h.73v.75h0a1.05,1.05,0,0,1,1.12-.8h.25v.69a.83.83,0,0,0-.31,0c-.92,0-1.08.52-1.08,1.33Z"/><path class="cls-1" d="M139.36,21.26V15.73h.72v5.53Z"/><path class="cls-1" d="M143.68,18.88c0-.66,0-1.05-.81-1.05a.65.65,0,0,0-.72.61h-.77c0-.84.7-1.14,1.46-1.14s1.57.24,1.57,1.31v1.84c0,.17,0,.49,0,.81H144c-.07,0-.2,0-.21-.05s0-.35,0-.52h0a1.24,1.24,0,0,1-1.2.69c-.66,0-1.34-.35-1.34-1.1,0-1.08,1-1.4,1.87-1.4Zm-.73.51c-.44,0-1,.19-1,.74a.69.69,0,0,0,.76.72c.86,0,1-.75,1-1.46Z"/><path class="cls-1" d="M146.37,18h0a1.41,1.41,0,0,1,2.62.62v2.66h-.73V18.84c0-.64-.27-1-.88-1a1,1,0,0,0-.71.28c-.1.11-.3.28-.3,1v2.09h-.73V17.41h.71Z"/><path class="cls-1" d="M152.85,15.73h.73v4.85c0,.23,0,.46,0,.68h-.75l0-.57v0h0a1.36,1.36,0,0,1-1.32.73c-1.14,0-1.6-1.05-1.6-2s.53-2,1.73-2a1.23,1.23,0,0,1,1.19.63h0Zm-1.08,5.14c.88,0,1.09-.82,1.09-1.54s-.26-1.53-1.09-1.53-1.09.81-1.09,1.53S151,20.87,151.77,20.87Z"/><rect class="cls-1" x="19.85" width="0.97" height="28.35"/><path class="cls-1" d="M5.27,9.42a5.05,5.05,0,0,1,4.6-2.67A5.3,5.3,0,0,1,13.65,8a5.74,5.74,0,0,1,1.41,4.22v9H9.49V13.35a1.89,1.89,0,0,0-1.89-2,2,2,0,0,0-2,2.3v7.62H0V7.1H5.27Z"/><path class="cls-1" d="M45.54,6.77a1.89,1.89,0,0,0,0,3.78,1.85,1.85,0,0,0,1.39-.65c.54,1.65-2.33,10.21-6.25,10.21-1.27,0-1.66-1-1.66-2.36a21.66,21.66,0,0,1,1-5.35c.6-2.15,1.15-4.2,1.45-5.3H37.72C37.2,9,33.51,19.84,30.37,19.84c-.39,0-.82-.42-.82-1.18a14.07,14.07,0,0,1,.55-2.45L31.34,12A11.41,11.41,0,0,0,32,9.11a2.18,2.18,0,0,0-2.23-2.33c-3.42,0-4.84,3.05-5.54,4.29l.58.36c.33-.54,1.84-3.11,2.87-3.11.15,0,.27.18.27.72A10.45,10.45,0,0,1,27.53,11l-1.3,4.29a14.94,14.94,0,0,0-.73,3.39,2.84,2.84,0,0,0,2.84,3c4.85,0,7-5.86,7.65-7.56l.06.07a16.59,16.59,0,0,0-.51,3c0,2.6,1.16,4.47,3.7,4.47C46.6,21.65,50.62,6.77,45.54,6.77Z"/></g></g></svg>