<?xml version="1.0" encoding="UTF-8"?><svg id="Madrid" xmlns="http://www.w3.org/2000/svg" viewBox="0 0 494 234"><defs><style>.cls-1,.cls-2{fill:#095540;}.cls-1,.cls-3,.cls-4{stroke-width:0px;}.cls-2{stroke:#095540;stroke-miterlimit:10;stroke-width:.6px;}.cls-3{fill-rule:evenodd;}.cls-3,.cls-4{fill:#fff;}</style></defs><rect class="cls-2" width="235.04" height="234"/><path class="cls-3" d="M45.75,134.83l-8.1-.02.05-47.76h-11.28v59.07h21.92c8.1,0,16.01-5.69,16.04-13.8v-45.26h-11.29v38.28c0,5.09-1.47,9.5-7.34,9.5h0ZM96.51,98.32h8.03v47.79h11.29v-59.07h-21.85c-8.15,0-16.15,5.73-16.16,13.9v45.17h11.29v-38.17c0-5.12,1.49-9.63,7.4-9.61h0ZM192.17,134.83c7.55,0,6.69-8.14,6.69-8.14v-18.39c0-1.91.88-9.97-6.65-9.97h-8.76v36.5h8.72ZM210.15,133c-.07,13.67-12.37,13.11-15.8,13.11h-22.19v-59.07h22.28c3.08,0,15.69-.2,15.72,13.62v32.34h0ZM129.38,101.75c0-5.33,3.16-8.66,4.98-10.55,1.57-1.65,5.05-4.16,8.89-4.16h14.98v11.26l-11.36.02s-2.71.26-4.41,2.34c-1.71,2.05-1.79,3.95-1.79,3.95v6.26h14.58s.03,11.3.03,11.3h-14.62s0,7.78,0,7.78c0,0-.18,2.1,1.02,3.44.83.95,1.63,1.43,2.91,1.43l13.63.02v11.27h-16.27c-3.52,0-6.34-1.13-8.83-3.63-2.62-2.57-3.76-4.72-3.76-8.85v-31.88h0Z"/><rect class="cls-1" x="264.08" y="5.01" width="225.04" height="223.98"/><path class="cls-1" d="M484.13,10.01v213.98h-215.04V10.01h215.04M494.13,0h-235.04v233.98h235.04V0h0Z"/><path class="cls-4" d="M280.15,88.73v7.24h8.06v3.28h-8.06v11.41h-4.5v-25.2h13.07v3.28h-8.57Z"/><path class="cls-4" d="M303.41,111.23l-2.09-2.84c-.58.83-1.91,2.7-5.08,2.7s-5.76-1.91-5.76-5.51c0-5.9,5.87-6.12,10.11-7.02,0-2.92-1.19-3.92-4.17-3.92-2.2,0-4.39.68-4.39.68v-2.95s2.16-.72,4.93-.72c5.22,0,7.67,2.12,7.67,7.09v5.65c0,2.48-.04,2.92,1.48,5.69l-2.7,1.15ZM300.63,101.47c-3.56.86-6.08,1.04-6.08,3.96,0,1.51,1.12,2.41,2.59,2.41,2.34,0,3.49-1.76,3.49-4.1v-2.27Z"/><path class="cls-4" d="M315.65,111.08c-5.25,0-7.52-4.68-7.52-9.94,0-5.69,2.48-9.5,7.99-9.5,1.84,0,3.49.65,3.49.65v2.95s-1.3-.5-2.74-.5c-3.46,0-4.61,3.02-4.61,6.66,0,3.1,1.3,6.55,4.14,6.55,1.94,0,3.06-1.15,3.06-1.15l.76,2.66s-1.37,1.62-4.57,1.62Z"/><path class="cls-4" d="M334.91,110.65l-1.69-2.3c-.68.68-2.27,2.7-5.51,2.7-4.07,0-5.22-2.92-5.22-6.66v-12.31h4v12.13c0,2.2.47,3.6,2.3,3.6,1.94,0,3.24-1.69,3.71-2.34v-13.39h4v18.57h-1.58Z"/><path class="cls-4" d="M344.12,111.23l-1.15-1.58c-1.51-2.12-1.62-2.63-1.62-5.9v-20.91h4v20.91c0,3.17-.07,3.46,1.44,6.33l-2.66,1.15Z"/><path class="cls-4" d="M355.07,95.1v8.64c0,3.17-.07,3.46,1.44,6.33l-2.66,1.15-1.12-1.58c-1.55-2.12-1.66-2.63-1.66-5.9v-8.64l-2.41.07v-3.1h2.41v-3.78l4-.86v4.64h2.77v3.1l-2.77-.07Z"/><path class="cls-4" d="M372.13,111.23l-2.09-2.84c-.58.83-1.91,2.7-5.08,2.7s-5.76-1.91-5.76-5.51c0-5.9,5.87-6.12,10.11-7.02,0-2.92-1.19-3.92-4.17-3.92-2.2,0-4.39.68-4.39.68v-2.95s2.16-.72,4.93-.72c5.22,0,7.67,2.12,7.67,7.09v5.65c0,2.48-.04,2.92,1.48,5.69l-2.7,1.15ZM369.36,101.47c-3.56.86-6.08,1.04-6.08,3.96,0,1.51,1.12,2.41,2.59,2.41,2.34,0,3.49-1.76,3.49-4.1v-2.27Z"/><path class="cls-4" d="M390.7,111.23l-2.02-2.81s-1.22,2.66-4.82,2.66c-4.9,0-7.02-4.28-7.02-9.4,0-5.58,2.48-10.04,7.92-10.04,1.55,0,3.2.58,3.2.58v-9.4h4v21.56c0,2.48-.04,2.92,1.44,5.69l-2.7,1.15ZM387.97,95.07s-1.01-.47-2.27-.47c-3.24,0-4.75,3.06-4.75,6.95,0,2.88.83,6.44,3.6,6.44s3.42-2.59,3.42-5.51v-7.42Z"/><path class="cls-4" d="M304.77,148.05l-2.02-2.81s-1.22,2.66-4.82,2.66c-4.9,0-7.02-4.28-7.02-9.39,0-5.58,2.48-10.04,7.92-10.04,1.55,0,3.2.58,3.2.58v-9.39h4v21.56c0,2.48-.04,2.92,1.44,5.69l-2.7,1.15ZM302.04,131.89s-1.01-.47-2.27-.47c-3.24,0-4.75,3.06-4.75,6.95,0,2.88.83,6.44,3.6,6.44s3.42-2.59,3.42-5.51v-7.42Z"/><path class="cls-4" d="M313.95,138.95c0,3.56,2.02,5.98,6.26,5.98,2.12,0,3.71-.68,3.71-.68v2.99s-1.69.68-4.14.68c-6.44,0-9.9-3.6-9.9-10.01,0-5.36,2.38-9.43,7.74-9.43,6.26,0,7.34,4.54,7.34,10.47h-11.01ZM317.7,131.42c-2.84,0-3.71,2.84-3.71,4.54h6.88c0-1.91-.29-4.54-3.17-4.54Z"/><path class="cls-4" d="M345.88,137h-4.1v10.47h-4.5v-25.2h8.17c5.08,0,8.24,2.56,8.24,7.34s-3.49,7.38-7.81,7.38ZM344.37,125.52h-2.59v8.28h2.66c2.84,0,4.64-1.19,4.64-4.32,0-2.74-1.8-3.96-4.71-3.96Z"/><path class="cls-4" d="M360.46,147.87c-3.24,0-5.11-1.73-5.11-1.73l.97-2.56s1.51,1.26,3.78,1.26c1.69,0,3.13-.68,3.13-2.3,0-3.42-7.67-2.45-7.67-8.64,0-3.74,3.13-5.47,6.77-5.47,2.2,0,4.07.68,4.07.68v2.99s-1.73-.68-3.64-.68c-1.58,0-3.2.61-3.2,2.16,0,3.24,7.67,2.48,7.67,8.57,0,3.82-2.95,5.72-6.77,5.72Z"/><path class="cls-4" d="M370.55,126.2v-3.92h4v3.92h-4ZM370.55,147.48v-18.57h4v18.57h-4Z"/><path class="cls-4" d="M385.74,147.91c-5.25,0-7.52-4.68-7.52-9.93,0-5.69,2.48-9.5,7.99-9.5,1.84,0,3.49.65,3.49.65v2.95s-1.3-.5-2.74-.5c-3.46,0-4.61,3.02-4.61,6.66,0,3.1,1.3,6.55,4.14,6.55,1.94,0,3.06-1.15,3.06-1.15l.76,2.66s-1.37,1.62-4.57,1.62Z"/><path class="cls-4" d="M399.7,147.95c-5.72,0-7.96-3.74-7.96-9.79s2.3-9.68,7.96-9.68,7.96,3.89,7.96,9.68-2.3,9.79-7.96,9.79ZM399.7,131.42c-3.17,0-3.89,3.35-3.89,6.73s.79,6.88,3.92,6.88,3.82-3.46,3.82-6.88-.61-6.73-3.85-6.73Z"/><path class="cls-4" d="M414.1,148.05l-1.15-1.58c-1.51-2.12-1.62-2.63-1.62-5.9v-20.91h4v20.91c0,3.17-.07,3.46,1.44,6.33l-2.66,1.15Z"/><path class="cls-4" d="M427.35,147.95c-5.72,0-7.95-3.74-7.95-9.79s2.3-9.68,7.95-9.68,7.96,3.89,7.96,9.68-2.3,9.79-7.96,9.79ZM427.35,131.42c-3.17,0-3.89,3.35-3.89,6.73s.79,6.88,3.92,6.88,3.82-3.46,3.82-6.88-.61-6.73-3.85-6.73Z"/><path class="cls-4" d="M451.18,131.71s1.48,1.4,1.48,4.32c0,5.9-5.36,6.88-7.42,6.7v2.2c3.28-.22,7.49.76,7.49,4.97s-4.86,5.94-9.11,5.94c-3.2,0-5.29-.54-5.29-.54l.68-2.92s2.02.47,4.03.47c3.17,0,5.54-.94,5.54-2.81s-2.2-2.23-4.1-2.23-3.46.32-3.46.32l1.37-5.72c-1.91-.5-4.57-2.34-4.57-6.48,0-4.71,2.92-7.16,7.78-7.16,4.14,0,3.67.29,7.42-1.48l1.12,2.66-2.95,1.76ZM445.21,131.71c-2.34,0-3.28,1.91-3.28,4.07s.94,4.03,3.31,4.03,3.35-1.73,3.35-4.03c0-2.52-1.01-4.07-3.38-4.07Z"/><path class="cls-4" d="M455.47,126.53l-.58-1.87,8.31-2.84v3.46l-7.74,1.26ZM456.91,147.48v-18.57h4v18.57h-4Z"/><path class="cls-4" d="M477.14,148.05l-2.09-2.84c-.58.83-1.91,2.7-5.08,2.7s-5.76-1.91-5.76-5.51c0-5.9,5.87-6.12,10.11-7.02,0-2.92-1.19-3.92-4.17-3.92-2.2,0-4.39.68-4.39.68v-2.95s2.16-.72,4.93-.72c5.22,0,7.67,2.12,7.67,7.09v5.65c0,2.48-.04,2.92,1.48,5.69l-2.7,1.15ZM474.37,138.3c-3.56.86-6.08,1.04-6.08,3.96,0,1.51,1.12,2.41,2.59,2.41,2.34,0,3.49-1.76,3.49-4.1v-2.27Z"/></svg>